# xmcd
#
# Track frame offsets: 
#        150
#        9239
#        11484
#        20446
#        30055
#        32111
#        41068
#        56153
#        79116
#        87877
#        90633
#        101022
#        112290
#        122354
#        124461
#        132813
#
# Disc length: 1921 seconds
#
# Revision: 0
# Processed by: cddbd v1.5.2PL0 Copyright (c) Steve Scherf et al.
# Submitted via: ExactAudioCopy v0.95b3
#
DISCID=c2077f10
DTITLE=The Beatles  - Way Beyond Compare - Episode 20 Easy Beat-John o
DTITLE=n Jukebox Jury-Saturday Club  FLAC
DYEAR=1900
DGENRE=
TTITLE0=01 Some Other Guy
TTITLE1=01A 'Twenty One Last Week'
TTITLE2=02 A Taste Of Honey
TTITLE3=03 Thank You Girl
TTITLE4=03A 'We Don't Normally Play Requests'
TTITLE5=04 From Me To You
TTITLE6=TV Interview, Juke Box Jury, BBC-TV Part 1
TTITLE7=TV Interview, Juke Box Jury, BBC-TV Part 2
TTITLE8=01 I Got To Find My Baby
TTITLE9=01A 'It's Also For Harry, And His Box'
TTITLE10=02 Memphis
TTITLE11=03 Money (That's What I Want)
TTITLE12=04 Till There Was You
TTITLE13=04A 'A Couple Of Quick Ones'
TTITLE14=05 From Me To You
TTITLE15=06 Roll Over Beethoven
EXTD=
EXTT0=
EXTT1=
EXTT2=
EXTT3=
EXTT4=
EXTT5=
EXTT6=
EXTT7=
EXTT8=
EXTT9=
EXTT10=
EXTT11=
EXTT12=
EXTT13=
EXTT14=
EXTT15=
PLAYORDER=
